<?xml version="1.0" encoding="UTF-8"?> <svg xmlns="http://www.w3.org/2000/svg" xmlns:xlink="http://www.w3.org/1999/xlink" xmlns:xodm="http://www.corel.com/coreldraw/odm/2003" xml:space="preserve" width="165.89mm" height="51.6132mm" version="1.1" style="shape-rendering:geometricPrecision; text-rendering:geometricPrecision; image-rendering:optimizeQuality; fill-rule:evenodd; clip-rule:evenodd" viewBox="0 0 783.37 243.73"> <defs> <style type="text/css"> .fil0 {fill:#063CC1} .fil2 {fill:black;fill-rule:nonzero} .fil1 {fill:#063CC1;fill-rule:nonzero} </style> </defs> <g id="Слой_x0020_1"> <metadata id="CorelCorpID_0Corel-Layer"></metadata> <path class="fil0" d="M209.99 105.01c2.28,1.94 15.06,3.23 25.62,16.49 5.97,7.5 11.37,17.48 11.54,31.06 0.1,7.88 0.83,36.78 -0.81,42.19 -1.75,5.8 -4.59,9.36 -9.78,11.25 -4.81,1.75 -14.33,0.94 -20.12,0.94 -15.05,-0 -25.38,1.46 -34.71,-7.2 -9.09,-8.43 -7.34,-20.1 -7.33,-35.55 0,-7.22 -0.93,-13.6 2.77,-18.53 6.11,-8.15 22.72,-8.41 26.21,5.08 0.79,3.06 0.57,6.61 -0.58,9.43 -0.5,1.23 -1.11,2.3 -1.88,3.3 -0.82,1.05 -2.05,1.6 -2.65,2.97 2.35,3.78 12.4,3.69 17.9,0.45 2.54,-1.5 4.18,-3.52 5.53,-6.24 1.87,-3.78 1.84,-5.81 1.78,-10.69 -0.1,-8.92 0.22,-14 -4.4,-19.59 -3.55,-4.29 -9.31,-6.78 -17.12,-6.64 -7.66,0.14 -15.5,0.02 -23.18,0.02 -8.59,0 -12.78,1.15 -18.16,5.54 -11.46,9.36 -8.81,20.87 -8.81,39.41 0,25.51 11.85,21.61 16.28,31.31 2.41,5.28 1.64,16.06 1.64,22.66 -0,8.57 0.92,15.31 -4.95,19.24 -3.07,2.06 -5.73,1.67 -9.9,1.63 -3.87,-0.03 -7.72,-0.01 -11.59,0 -3.65,0.01 -7.36,0.32 -10.7,0.13 -3.35,0.19 -7.06,-0.12 -10.7,-0.13 -3.87,-0.01 -7.72,-0.03 -11.59,-0 -4.17,0.03 -6.83,0.42 -9.9,-1.63 -5.87,-3.93 -4.95,-10.67 -4.95,-19.24 -0,-6.61 -0.78,-17.38 1.64,-22.66 4.43,-9.7 16.27,-5.79 16.28,-31.31 0,-18.54 2.65,-30.05 -8.81,-39.41 -5.38,-4.39 -9.57,-5.54 -18.16,-5.54 -7.68,0 -15.52,0.12 -23.18,-0.02 -7.81,-0.14 -13.57,2.35 -17.12,6.64 -4.63,5.59 -4.3,10.67 -4.4,19.59 -0.06,4.88 -0.09,6.91 1.78,10.69 1.35,2.72 2.99,4.74 5.53,6.24 5.5,3.24 15.55,3.34 17.9,-0.45 -0.59,-1.36 -1.83,-1.92 -2.65,-2.97 -0.78,-1 -1.38,-2.07 -1.88,-3.3 -1.15,-2.82 -1.37,-6.37 -0.58,-9.43 3.49,-13.49 20.09,-13.24 26.2,-5.08 3.7,4.93 2.76,11.31 2.77,18.53 0.01,15.45 1.76,27.12 -7.33,35.55 -9.33,8.65 -19.65,7.19 -34.71,7.2 -5.79,0 -15.3,0.81 -20.12,-0.94 -5.19,-1.89 -8.02,-5.45 -9.78,-11.25 -1.64,-5.41 -0.91,-34.3 -0.81,-42.19 0.18,-13.58 5.57,-23.56 11.54,-31.06 10.56,-13.26 23.33,-14.55 25.62,-16.49 0.7,-6.93 -12.71,-5.43 -18.41,-5.42 -7.83,0.02 -15.73,-0.2 -23.54,0.11 -6.98,0.28 -12.73,-4.09 -12.99,-10.83 -0.75,-19.25 -0.75,-29.26 18.43,-29.11 17.97,0.14 55.59,-1.16 69.18,0.98 9.27,1.46 17.82,4.54 25.31,8.89 -1.59,-19.58 -11.99,-16.95 -16.07,-25.9 -2.41,-5.28 -1.64,-16.06 -1.64,-22.66 0,-8.57 -0.92,-15.31 4.95,-19.24 3.07,-2.06 5.73,-1.67 9.9,-1.63 3.87,0.03 7.72,0.01 11.59,-0 3.65,-0.01 7.36,-0.32 10.7,-0.13 3.35,-0.19 7.06,0.12 10.7,0.13 3.87,0.01 7.72,0.03 11.59,0 4.17,-0.03 6.83,-0.42 9.9,1.63 5.87,3.93 4.95,10.67 4.95,19.24 0,6.61 0.78,17.38 -1.64,22.66 -4.09,8.95 -14.49,6.32 -16.07,25.9 7.5,-4.35 16.04,-7.43 25.31,-8.89 13.59,-2.14 51.2,-0.84 69.18,-0.98 19.18,-0.15 19.17,9.86 18.43,29.11 -0.26,6.74 -6.01,11.11 -12.99,10.83 -7.81,-0.31 -15.72,-0.09 -23.54,-0.11 -5.7,-0.01 -19.11,-1.51 -18.41,5.42z"></path> <g id="_1267150244640"> <g> <path class="fil1" d="M352.41 68.09l-38.06 0 0 8.86 -8.86 0 0 -8.86 -8.86 0 0 8.86 8.86 0 0 8.72 8.86 0 0 8.86 8.72 0 0 -8.86 6.23 0 -7.61 17.71 -7.33 0 0 -8.86 -8.86 0 0 8.86 8.86 0 0 8.72 -8.86 0 0 8.86 -17.57 0 0 8.72 8.72 0 0 8.86 -8.72 0 0 17.57 -8.86 0 0 8.86 36.4 0 7.75 -17.71 42.9 0 7.75 17.71 20.62 0 -42.07 -96.87zm-64.49 44.01l17.57 0 0 -8.72 -8.86 0 0 -8.86 8.86 0 0 -8.86 -17.57 0 0 8.86 -8.86 0 0 8.86 8.86 0 0 8.72zm43.04 17.3l13.7 -31.27 13.7 31.27 -27.4 0zm-43.04 9.13l0 -8.72 -8.86 0 0 8.72 8.86 0zm17.57 1.8l-3.04 7.06 -5.81 0 0 -8.86 8.86 0 0 1.8z"></path> <path class="fil1" d="M428.68 134.71l-37.17 -67.62 33.29 0 17.19 37.61 14.14 -37.61 26.51 0 -28.81 71.34c-2.57,6.46 -5.53,11.62 -8.85,15.46 -3.33,3.84 -6.97,6.65 -10.93,8.44 -3.96,1.76 -9,2.64 -15.07,2.64l-15.14 0 0 -21.72 10.05 0c8.39,0 13.33,-2.84 14.8,-8.54zm88.58 -5.26l0 35.51 -30.52 0 0 -97.88 41.77 0c10.42,0 18.34,1.2 23.77,3.6 5.41,2.4 9.71,6.04 12.89,10.98 3.18,4.92 4.77,10.44 4.77,16.56 0,9.34 -3.25,16.87 -9.73,22.62 -6.48,5.75 -15.14,8.61 -25.97,8.61l-16.97 0zm-0.44 -20.98l9.98 0c8.8,0 13.21,-3.3 13.21,-9.9 0,-6.21 -4.06,-9.32 -12.2,-9.32l-10.98 0 0 19.22zm64.27 56.49l0 -97.88 49.7 0c10.32,0 17.85,2.59 22.6,7.8 4.72,5.21 7.09,11.15 7.09,17.83 0,4.87 -1.37,9.27 -4.11,13.21 -2.71,3.94 -6.8,6.65 -12.2,8.14 12.64,3.06 18.95,10.66 18.95,22.82 0,7.29 -2.23,13.77 -6.7,19.49 -4.48,5.72 -14.04,8.58 -28.69,8.58l-46.64 0zm27.59 -60.46l14.01 0c3.52,0 5.99,-0.88 7.44,-2.64 1.44,-1.76 2.18,-3.64 2.18,-5.65 0,-5.43 -3.37,-8.14 -10.12,-8.14l-13.5 0 0 16.44zm0 38.74l14.75 0c3.67,0 6.36,-0.91 8.07,-2.71 1.71,-1.79 2.57,-3.84 2.57,-6.09 0,-2.27 -0.83,-4.35 -2.49,-6.24 -1.66,-1.91 -4.72,-2.86 -9.15,-2.86l-13.74 0 0 17.9z"></path> <path class="fil1" d="M710.03 68.09l38.06 0 0 8.86 8.86 0 0 -8.86 8.86 0 0 8.86 -8.86 0 0 8.72 -8.86 0 0 8.86 -8.72 0 0 -8.86 -6.23 0 7.61 17.71 7.33 0 0 -8.86 8.86 0 0 8.86 -8.86 0 0 8.72 8.86 0 0 8.86 17.57 0 0 8.72 -8.72 0 0 8.86 8.72 0 0 17.57 8.86 0 0 8.86 -36.4 0 -7.75 -17.71 -42.9 0 -7.75 17.71 -20.62 0 42.07 -96.87zm64.49 44.01l-17.57 0 0 -8.72 8.86 0 0 -8.86 -8.86 0 0 -8.86 17.57 0 0 8.86 8.86 0 0 8.86 -8.86 0 0 8.72zm-43.04 17.3l-13.7 -31.27 -13.7 31.27 27.4 0zm43.04 9.13l0 -8.72 8.86 0 0 8.72 -8.86 0zm-17.57 1.8l3.04 7.06 5.81 0 0 -8.86 -8.86 0 0 1.8z"></path> </g> <path class="fil2" d="M284.01 180.13l3.09 0 7.73 25.8 -3.76 0 -5.52 -20.67 -5.52 20.67 -3.76 0 7.73 -25.8zm-3.64 16.84l10.61 0 0 3.31 -10.61 0 0 -3.31z"></path> <path id="_1" class="fil2" d="M304.45 206.2c-1.53,0 -2.85,-0.33 -3.98,-0.99 -1.12,-0.65 -1.99,-1.59 -2.6,-2.81 -0.61,-1.22 -0.91,-2.65 -0.91,-4.31l0 -10.1c0,-1.65 0.31,-3.09 0.91,-4.32 0.61,-1.22 1.48,-2.17 2.6,-2.82 1.13,-0.66 2.45,-0.99 3.98,-0.99 1.48,0 2.75,0.3 3.82,0.89 1.07,0.59 1.91,1.46 2.53,2.6 0.62,1.15 0.98,2.54 1.08,4.19l0 0 -3.55 0 0 0c-0.09,-0.91 -0.3,-1.68 -0.64,-2.33 -0.35,-0.64 -0.79,-1.12 -1.35,-1.45 -0.56,-0.33 -1.19,-0.5 -1.9,-0.5 -0.81,0 -1.5,0.19 -2.09,0.58 -0.58,0.38 -1.04,0.93 -1.36,1.64 -0.33,0.71 -0.49,1.54 -0.49,2.5l0 10.1c0,0.96 0.16,1.79 0.49,2.5 0.32,0.71 0.78,1.25 1.36,1.64 0.59,0.38 1.28,0.56 2.09,0.56 0.72,0 1.36,-0.16 1.9,-0.48 0.55,-0.33 1,-0.81 1.34,-1.45 0.34,-0.64 0.55,-1.42 0.64,-2.34l0 0 3.55 0 0 0c-0.1,1.65 -0.47,3.04 -1.09,4.19 -0.62,1.14 -1.47,2.02 -2.54,2.6 -1.07,0.59 -2.34,0.89 -3.8,0.89z"></path> <path id="_2" class="fil2" d="M322.59 206.2c-1.53,0 -2.85,-0.33 -3.98,-0.99 -1.12,-0.65 -1.99,-1.59 -2.6,-2.81 -0.61,-1.22 -0.91,-2.65 -0.91,-4.31l0 -10.1c0,-1.65 0.31,-3.09 0.91,-4.32 0.61,-1.22 1.48,-2.17 2.6,-2.82 1.13,-0.66 2.45,-0.99 3.98,-0.99 1.48,0 2.75,0.3 3.82,0.89 1.07,0.59 1.91,1.46 2.53,2.6 0.62,1.15 0.98,2.54 1.08,4.19l0 0 -3.55 0 0 0c-0.09,-0.91 -0.3,-1.68 -0.64,-2.33 -0.35,-0.64 -0.79,-1.12 -1.35,-1.45 -0.56,-0.33 -1.19,-0.5 -1.9,-0.5 -0.81,0 -1.5,0.19 -2.09,0.58 -0.58,0.38 -1.04,0.93 -1.36,1.64 -0.33,0.71 -0.49,1.54 -0.49,2.5l0 10.1c0,0.96 0.16,1.79 0.49,2.5 0.32,0.71 0.78,1.25 1.36,1.64 0.59,0.38 1.28,0.56 2.09,0.56 0.72,0 1.36,-0.16 1.9,-0.48 0.55,-0.33 1,-0.81 1.34,-1.45 0.34,-0.64 0.55,-1.42 0.64,-2.34l0 0 3.55 0 0 0c-0.1,1.65 -0.47,3.04 -1.09,4.19 -0.62,1.14 -1.47,2.02 -2.54,2.6 -1.07,0.59 -2.34,0.89 -3.8,0.89z"></path> <path id="_3" class="fil2" d="M340.97 206.2c-1.57,0 -2.94,-0.33 -4.11,-0.98 -1.16,-0.65 -2.06,-1.57 -2.69,-2.78 -0.62,-1.2 -0.94,-2.62 -0.94,-4.25l0 -10.34c0,-1.64 0.31,-3.05 0.94,-4.25 0.63,-1.2 1.53,-2.13 2.69,-2.77 1.17,-0.64 2.54,-0.97 4.11,-0.97 1.57,0 2.94,0.33 4.11,0.97 1.16,0.64 2.06,1.57 2.69,2.77 0.62,1.2 0.94,2.62 0.94,4.25l0 10.34c0,1.63 -0.31,3.05 -0.94,4.25 -0.63,1.21 -1.53,2.13 -2.69,2.78 -1.17,0.65 -2.54,0.98 -4.11,0.98zm0 -3.42c0.85,0 1.59,-0.18 2.22,-0.55 0.64,-0.36 1.12,-0.88 1.47,-1.55 0.35,-0.68 0.51,-1.46 0.51,-2.36l0 -10.57c0,-0.91 -0.17,-1.7 -0.51,-2.37 -0.35,-0.67 -0.83,-1.18 -1.47,-1.54 -0.63,-0.36 -1.37,-0.54 -2.22,-0.54 -0.85,0 -1.6,0.18 -2.23,0.54 -0.64,0.36 -1.12,0.88 -1.45,1.54 -0.34,0.67 -0.51,1.46 -0.51,2.37l0 10.57c0,0.9 0.17,1.68 0.51,2.36 0.33,0.67 0.82,1.19 1.45,1.55 0.63,0.36 1.37,0.55 2.23,0.55z"></path> <path id="_4" class="fil2" d="M364.66 180.13l3.49 0 0 25.8 -3.49 0 0 -25.8zm-9.33 22.48l12.54 0 0 3.32 -12.54 0 0 -3.32zm12.35 0l3.49 0 0 8.66 -3.49 0 0 -8.66zm-14.62 -22.48l3.49 0 0 25.8 -3.49 0 0 -25.8z"></path> <polygon id="_5" class="fil2" points="387.09,205.91 387.09,186.34 387.52,186.8 377.53,205.91 374.63,205.91 374.63,180.13 378.06,180.13 378.06,199.92 377.63,199.46 387.66,180.13 390.49,180.13 390.49,205.91 "></polygon> <path id="_6" class="fil2" d="M400.99 180.13l3.09 0 7.73 25.8 -3.76 0 -5.52 -20.67 -5.52 20.67 -3.76 0 7.73 -25.8zm-3.64 16.84l10.61 0 0 3.31 -10.61 0 0 -3.31z"></path> <path id="_7" class="fil2" d="M426.52 180.13l3.49 0 0 25.8 -3.49 0 0 -25.8zm-9.33 22.48l12.54 0 0 3.32 -12.54 0 0 -3.32zm12.35 0l3.49 0 0 8.66 -3.49 0 0 -8.66zm-14.62 -22.48l3.49 0 0 25.8 -3.49 0 0 -25.8z"></path> <polygon id="_8" class="fil2" points="448.95,205.91 448.95,186.34 449.38,186.8 439.39,205.91 436.5,205.91 436.5,180.13 439.92,180.13 439.92,199.92 439.49,199.46 449.52,180.13 452.36,180.13 452.36,205.91 "></polygon> <path id="_9" class="fil2" d="M463.49 195.55c-1.44,0 -2.68,-0.28 -3.72,-0.84 -1.05,-0.55 -1.87,-1.35 -2.44,-2.39 -0.58,-1.04 -0.86,-2.25 -0.86,-3.66l0 -1.77c0,-1.38 0.28,-2.59 0.85,-3.61 0.57,-1.02 1.38,-1.8 2.44,-2.35 1.06,-0.54 2.3,-0.82 3.74,-0.82l6.37 0 0 3.32 -6.6 0c-0.65,0 -1.22,0.15 -1.7,0.44 -0.48,0.3 -0.85,0.72 -1.1,1.27 -0.25,0.55 -0.38,1.2 -0.38,1.94l0 1.57c0,0.73 0.13,1.36 0.38,1.89 0.25,0.54 0.62,0.96 1.11,1.25 0.48,0.28 1.05,0.43 1.69,0.43l6.6 0 0 3.32 -6.37 0zm-1.6 -1.61l3.3 0.81 -4.85 11.18 -3.99 0 5.54 -11.99zm6.05 -13.83l3.49 0 0 25.82 -3.49 0 0 -25.82z"></path> <path id="_10" class="fil2" d="M483.42 180.13l3.85 0 5.63 18.92 -2.25 2.9 -7.23 -21.81zm10.91 20.9c-0.35,1.15 -0.78,2.11 -1.3,2.87 -0.53,0.76 -1.17,1.33 -1.94,1.72 -0.76,0.38 -1.66,0.58 -2.69,0.58l-2.29 0 0 -3.48 2.29 0c0.51,0 0.96,-0.11 1.36,-0.35 0.4,-0.23 0.74,-0.58 1.03,-1.03 0.29,-0.46 0.53,-1.03 0.72,-1.71l5.36 -19.5 3.67 0 -6.21 20.9z"></path> <path id="_11" class="fil2" d="M513.24 180.13l3.49 0 0 25.8 -3.49 0 0 -25.8zm-4.34 17.73c-1.34,0 -2.48,-0.28 -3.43,-0.84 -0.94,-0.56 -1.67,-1.39 -2.16,-2.47 -0.5,-1.08 -0.75,-2.38 -0.75,-3.89l0 -10.53 3.49 0 0 10.59c0,1.21 0.3,2.14 0.9,2.8 0.61,0.65 1.45,0.98 2.56,0.98 1.18,0 2.1,-0.36 2.75,-1.08 0.65,-0.73 0.98,-1.74 0.98,-3.05l0 -1.85 1.14 0 0 1.91c0,1.56 -0.22,2.9 -0.65,4.01 -0.43,1.11 -1.05,1.96 -1.87,2.54 -0.82,0.58 -1.8,0.87 -2.96,0.87z"></path> <path id="_12" class="fil2" d="M527.58 180.13l3.09 0 7.73 25.8 -3.76 0 -5.52 -20.67 -5.52 20.67 -3.76 0 7.73 -25.8zm-3.64 16.84l10.61 0 0 3.31 -10.61 0 0 -3.31z"></path> <path id="_13" class="fil2" d="M548.02 206.2c-1.53,0 -2.85,-0.33 -3.98,-0.99 -1.12,-0.65 -1.99,-1.59 -2.6,-2.81 -0.61,-1.22 -0.91,-2.65 -0.91,-4.31l0 -10.1c0,-1.65 0.31,-3.09 0.91,-4.32 0.61,-1.22 1.48,-2.17 2.6,-2.82 1.13,-0.66 2.45,-0.99 3.98,-0.99 1.48,0 2.75,0.3 3.82,0.89 1.07,0.59 1.91,1.46 2.53,2.6 0.62,1.15 0.98,2.54 1.08,4.19l0 0 -3.55 0 0 0c-0.09,-0.91 -0.3,-1.68 -0.64,-2.33 -0.35,-0.64 -0.79,-1.12 -1.35,-1.45 -0.56,-0.33 -1.19,-0.5 -1.9,-0.5 -0.81,0 -1.5,0.19 -2.09,0.58 -0.58,0.38 -1.04,0.93 -1.36,1.64 -0.33,0.71 -0.49,1.54 -0.49,2.5l0 10.1c0,0.96 0.16,1.79 0.49,2.5 0.32,0.71 0.78,1.25 1.36,1.64 0.59,0.38 1.28,0.56 2.09,0.56 0.72,0 1.36,-0.16 1.9,-0.48 0.55,-0.33 1,-0.81 1.34,-1.45 0.34,-0.64 0.55,-1.42 0.64,-2.34l0 0 3.55 0 0 0c-0.1,1.65 -0.47,3.04 -1.09,4.19 -0.62,1.14 -1.47,2.02 -2.54,2.6 -1.07,0.59 -2.34,0.89 -3.8,0.89z"></path> <path id="_14" class="fil2" d="M562.92 182.24l3.49 0 0 23.69 -3.49 0 0 -23.69zm-5.94 -2.11l15.37 0 0 3.32 -15.37 0 0 -3.32z"></path> <path id="_15" class="fil2" d="M586.95 180.13l3.49 0 0 25.8 -3.49 0 0 -25.8zm-11.59 0l3.51 0 0 25.8 -3.51 0 0 -25.8zm2.25 11.43l11.13 0 0 3.32 -11.13 0 0 -3.32z"></path> <polygon id="_16" class="fil2" points="607.87,205.91 607.87,186.34 608.3,186.8 598.31,205.91 595.41,205.91 595.41,180.13 598.84,180.13 598.84,199.92 598.41,199.46 608.44,180.13 611.28,180.13 611.28,205.91 "></polygon> <path id="_17" class="fil2" d="M622.51 191.82l5.63 -11.7 4.01 0 -7.63 14.75 -2 -3.05zm-0.1 2.68l3.09 -1.79 7.73 13.22 -4.31 0 -6.51 -11.43zm-6.16 -14.37l3.49 0 0 25.8 -3.49 0 0 -25.8zm1.76 11.32l7.5 0 0 3.32 -7.5 0 0 -3.32z"></path> <path id="_18" class="fil2" d="M642.21 206.2c-1.57,0 -2.94,-0.33 -4.11,-0.98 -1.16,-0.65 -2.06,-1.57 -2.69,-2.78 -0.62,-1.2 -0.94,-2.62 -0.94,-4.25l0 -10.34c0,-1.64 0.31,-3.05 0.94,-4.25 0.63,-1.2 1.53,-2.13 2.69,-2.77 1.17,-0.64 2.54,-0.97 4.11,-0.97 1.57,0 2.94,0.33 4.11,0.97 1.16,0.64 2.06,1.57 2.69,2.77 0.62,1.2 0.94,2.62 0.94,4.25l0 10.34c0,1.63 -0.31,3.05 -0.94,4.25 -0.63,1.21 -1.53,2.13 -2.69,2.78 -1.17,0.65 -2.54,0.98 -4.11,0.98zm0 -3.42c0.85,0 1.59,-0.18 2.22,-0.55 0.64,-0.36 1.12,-0.88 1.47,-1.55 0.35,-0.68 0.51,-1.46 0.51,-2.36l0 -10.57c0,-0.91 -0.17,-1.7 -0.51,-2.37 -0.35,-0.67 -0.83,-1.18 -1.47,-1.54 -0.63,-0.36 -1.37,-0.54 -2.22,-0.54 -0.85,0 -1.6,0.18 -2.23,0.54 -0.64,0.36 -1.12,0.88 -1.45,1.54 -0.34,0.67 -0.51,1.46 -0.51,2.37l0 10.57c0,0.9 0.17,1.68 0.51,2.36 0.33,0.67 0.82,1.19 1.45,1.55 0.63,0.36 1.37,0.55 2.23,0.55z"></path> <path id="_19" class="fil2" d="M656.42 202.65l5.62 0c1.29,0 2.25,-0.27 2.89,-0.81 0.63,-0.54 0.94,-1.3 0.94,-2.28l0 -1.7c0,-0.77 -0.13,-1.42 -0.39,-1.97 -0.26,-0.54 -0.65,-0.96 -1.16,-1.25 -0.51,-0.29 -1.16,-0.44 -1.93,-0.44l-5.98 0 0 -3.23 5.98 0c1.02,0 1.79,-0.28 2.33,-0.83 0.54,-0.56 0.81,-1.36 0.81,-2.42l0 -1.31c0,-0.99 -0.29,-1.74 -0.87,-2.25 -0.57,-0.51 -1.4,-0.76 -2.51,-0.76l-5.75 0 0 -3.26 6.05 0c1.42,0 2.62,0.24 3.61,0.73 0.99,0.48 1.73,1.18 2.23,2.09 0.5,0.9 0.74,1.99 0.74,3.25l0 1.37c0,0.85 -0.15,1.62 -0.45,2.33 -0.3,0.7 -0.75,1.28 -1.35,1.76 -0.59,0.48 -1.33,0.8 -2.19,0.97 0.9,0.13 1.68,0.44 2.33,0.94 0.65,0.5 1.15,1.14 1.49,1.9 0.35,0.76 0.51,1.62 0.51,2.56l0 1.74c0,1.25 -0.26,2.35 -0.78,3.28 -0.52,0.93 -1.27,1.64 -2.26,2.14 -0.99,0.5 -2.15,0.75 -3.49,0.75l-6.44 0 0 -3.28zm-2.13 -22.52l3.49 0 0 25.8 -3.49 0 0 -25.8z"></path> <path id="_20" class="fil2" d="M684.05 192.61l6.57 0c0.62,0 1.17,-0.15 1.63,-0.44 0.46,-0.29 0.82,-0.7 1.08,-1.24 0.25,-0.54 0.38,-1.17 0.38,-1.89l0 -1.97c0,-0.73 -0.13,-1.38 -0.38,-1.92 -0.25,-0.54 -0.62,-0.96 -1.08,-1.26 -0.46,-0.29 -1.01,-0.44 -1.63,-0.44l-6.57 0 0 -3.32 6.47 0c1.38,0 2.57,0.28 3.59,0.84 1.02,0.56 1.8,1.36 2.34,2.39 0.54,1.04 0.81,2.27 0.81,3.68l0 2.06c0,1.39 -0.27,2.6 -0.82,3.63 -0.55,1.02 -1.33,1.81 -2.34,2.37 -1.01,0.56 -2.2,0.84 -3.57,0.84l-6.47 0 0 -3.32zm-1.87 -12.48l3.49 0 0 25.8 -3.49 0 0 -25.8z"></path> <path id="_21" class="fil2" d="M703.48 202.61l5.98 0c0.65,0 1.21,-0.13 1.67,-0.41 0.47,-0.27 0.82,-0.67 1.06,-1.19 0.24,-0.51 0.36,-1.14 0.36,-1.88l0 -1.79c0,-0.75 -0.12,-1.38 -0.36,-1.91 -0.24,-0.53 -0.59,-0.93 -1.06,-1.21 -0.46,-0.28 -1.02,-0.42 -1.67,-0.42l-5.98 0 0 -3.32 5.86 0c1.42,0 2.63,0.27 3.65,0.8 1.01,0.53 1.78,1.31 2.3,2.33 0.53,1.02 0.79,2.25 0.79,3.68l0 1.88c0,1.42 -0.27,2.63 -0.8,3.63 -0.53,1.01 -1.3,1.77 -2.31,2.31 -1.01,0.53 -2.22,0.8 -3.63,0.8l-5.86 0 0 -3.32zm-1.87 -22.48l3.49 0 0 25.8 -3.49 0 0 -25.8zm20.5 25.8l-3.49 0 0 -25.8 3.49 0 0 25.8z"></path> <path id="_22" class="fil2" d="M738.64 180.13l3.49 0 0 25.8 -3.49 0 0 -25.8zm-11.59 0l3.51 0 0 25.8 -3.51 0 0 -25.8zm2.25 11.43l11.13 0 0 3.32 -11.13 0 0 -3.32z"></path> <path id="_23" class="fil2" d="M753.37 191.82l5.63 -11.7 4.01 0 -7.63 14.75 -2 -3.05zm-0.1 2.68l3.09 -1.79 7.73 13.22 -4.31 0 -6.51 -11.43zm-6.16 -14.37l3.49 0 0 25.8 -3.49 0 0 -25.8zm1.76 11.32l7.5 0 0 3.32 -7.5 0 0 -3.32z"></path> <path id="_24" class="fil2" d="M772.54 180.13l3.09 0 7.73 25.8 -3.76 0 -5.52 -20.67 -5.52 20.67 -3.76 0 7.73 -25.8zm-3.64 16.84l10.61 0 0 3.31 -10.61 0 0 -3.31z"></path> <path id="_25" class="fil2" d="M280.27 240.18l5.62 0c1.29,0 2.25,-0.27 2.89,-0.81 0.63,-0.54 0.94,-1.3 0.94,-2.28l0 -1.7c0,-0.77 -0.13,-1.42 -0.39,-1.97 -0.26,-0.54 -0.65,-0.96 -1.16,-1.25 -0.51,-0.29 -1.16,-0.44 -1.93,-0.44l-5.98 0 0 -3.23 5.98 0c1.02,0 1.79,-0.28 2.33,-0.83 0.54,-0.56 0.81,-1.36 0.81,-2.42l0 -1.31c0,-0.99 -0.29,-1.74 -0.87,-2.25 -0.57,-0.51 -1.4,-0.76 -2.51,-0.76l-5.75 0 0 -3.26 6.05 0c1.42,0 2.62,0.24 3.61,0.73 0.99,0.48 1.73,1.18 2.23,2.09 0.5,0.9 0.74,1.99 0.74,3.25l0 1.37c0,0.85 -0.15,1.62 -0.45,2.33 -0.3,0.7 -0.75,1.28 -1.35,1.76 -0.59,0.48 -1.33,0.8 -2.19,0.97 0.9,0.13 1.68,0.44 2.33,0.94 0.65,0.5 1.15,1.14 1.49,1.9 0.35,0.76 0.51,1.62 0.51,2.56l0 1.74c0,1.25 -0.26,2.35 -0.78,3.28 -0.52,0.93 -1.27,1.64 -2.26,2.14 -0.99,0.5 -2.15,0.75 -3.49,0.75l-6.44 0 0 -3.28zm-2.13 -22.52l3.49 0 0 25.8 -3.49 0 0 -25.8z"></path> <polygon id="_26" class="fil2" points="309.95,243.45 309.95,223.88 310.38,224.34 300.39,243.45 297.49,243.45 297.49,217.66 300.92,217.66 300.92,237.45 300.49,236.99 310.52,217.66 313.36,217.66 313.36,243.45 "></polygon> <path id="_27" class="fil2" d="M320.19 230.14l6.57 0c0.62,0 1.17,-0.15 1.63,-0.44 0.46,-0.29 0.82,-0.7 1.08,-1.24 0.25,-0.54 0.38,-1.17 0.38,-1.89l0 -1.97c0,-0.73 -0.13,-1.38 -0.38,-1.92 -0.25,-0.54 -0.62,-0.96 -1.08,-1.26 -0.46,-0.29 -1.01,-0.44 -1.63,-0.44l-6.57 0 0 -3.32 6.47 0c1.38,0 2.57,0.28 3.59,0.84 1.02,0.56 1.8,1.36 2.34,2.39 0.54,1.04 0.81,2.27 0.81,3.68l0 2.06c0,1.39 -0.27,2.6 -0.82,3.63 -0.55,1.02 -1.33,1.81 -2.34,2.37 -1.01,0.56 -2.2,0.84 -3.57,0.84l-6.47 0 0 -3.32zm-1.87 -12.48l3.49 0 0 25.8 -3.49 0 0 -25.8z"></path> <path id="_28" class="fil2" d="M342.99 219.78l3.49 0 0 23.69 -3.49 0 0 -23.69zm-5.94 -2.11l15.37 0 0 3.32 -15.37 0 0 -3.32z"></path> <path id="_29" class="fil2" d="M355.34 217.66l3.85 0 5.63 18.92 -2.25 2.9 -7.23 -21.81zm10.91 20.9c-0.35,1.15 -0.78,2.11 -1.3,2.87 -0.53,0.76 -1.17,1.33 -1.94,1.72 -0.76,0.38 -1.66,0.58 -2.69,0.58l-2.29 0 0 -3.48 2.29 0c0.51,0 0.96,-0.11 1.36,-0.35 0.4,-0.23 0.74,-0.58 1.03,-1.03 0.29,-0.46 0.53,-1.03 0.72,-1.71l5.36 -19.5 3.67 0 -6.21 20.9z"></path> <path id="_30" class="fil2" d="M378.83 217.66l3.09 0 7.73 25.8 -3.76 0 -5.52 -20.67 -5.52 20.67 -3.76 0 7.73 -25.8zm-3.64 16.84l10.61 0 0 3.31 -10.61 0 0 -3.31z"></path> <path id="_31" class="fil2" d="M392.67 240.16l0.02 0c0.72,0 1.31,-0.17 1.78,-0.51 0.47,-0.35 0.82,-0.87 1.05,-1.57 0.23,-0.7 0.35,-1.6 0.35,-2.69l0 -17.73 3.49 0 0 17.73c0,1.82 -0.23,3.33 -0.69,4.52 -0.46,1.19 -1.16,2.08 -2.08,2.67 -0.93,0.59 -2.11,0.88 -3.54,0.88l-0.37 0 0 -3.3zm13.19 -22.5l3.49 0 0 25.8 -3.49 0 0 -25.8zm-7.74 0l9.53 0 0 3.32 -9.53 0 0 -3.32z"></path> <path id="_32" class="fil2" d="M416.18 240.14l6.51 0c0.65,0 1.21,-0.13 1.67,-0.41 0.47,-0.27 0.82,-0.67 1.06,-1.19 0.24,-0.51 0.36,-1.14 0.36,-1.88l0 -1.79c0,-0.75 -0.12,-1.38 -0.36,-1.91 -0.24,-0.53 -0.59,-0.93 -1.06,-1.21 -0.46,-0.28 -1.02,-0.42 -1.67,-0.42l-6.51 0 0 -3.32 6.38 0c1.42,0 2.64,0.27 3.65,0.8 1.01,0.53 1.77,1.31 2.3,2.33 0.53,1.02 0.79,2.25 0.79,3.68l0 1.88c0,1.42 -0.27,2.63 -0.8,3.63 -0.53,1.01 -1.3,1.77 -2.31,2.31 -1.01,0.53 -2.22,0.8 -3.64,0.8l-6.38 0 0 -3.32zm-1.87 -22.48l3.49 0 0 25.8 -3.49 0 0 -25.8z"></path> <path id="_33" class="fil2" d="M444.45 217.66l3.49 0 0 25.8 -3.49 0 0 -25.8zm-11.59 0l3.51 0 0 25.8 -3.51 0 0 -25.8zm2.25 11.43l11.13 0 0 3.32 -11.13 0 0 -3.32z"></path> <path id="_34" class="fil2" d="M454.78 240.14l5.98 0c0.65,0 1.21,-0.13 1.67,-0.41 0.47,-0.27 0.82,-0.67 1.06,-1.19 0.24,-0.51 0.36,-1.14 0.36,-1.88l0 -1.79c0,-0.75 -0.12,-1.38 -0.36,-1.91 -0.24,-0.53 -0.59,-0.93 -1.06,-1.21 -0.46,-0.28 -1.02,-0.42 -1.67,-0.42l-5.98 0 0 -3.32 5.86 0c1.42,0 2.63,0.27 3.65,0.8 1.01,0.53 1.78,1.31 2.3,2.33 0.53,1.02 0.79,2.25 0.79,3.68l0 1.88c0,1.42 -0.27,2.63 -0.8,3.63 -0.53,1.01 -1.3,1.77 -2.31,2.31 -1.01,0.53 -2.22,0.8 -3.63,0.8l-5.86 0 0 -3.32zm-1.87 -22.48l3.49 0 0 25.8 -3.49 0 0 -25.8zm20.5 25.8l-3.49 0 0 -25.8 3.49 0 0 25.8z"></path> <path id="_35" class="fil2" d="M483.83 232.14l-0.55 -0.91 -7.01 -13.57 3.85 0 4.97 10.47 0.6 0.99 7.44 14.34 -3.83 0 -5.46 -11.32zm-0.16 -3.43l5.23 -11.05 3.83 0 -7.17 13.98 -5.66 11.82 -3.85 0 7.61 -14.75z"></path> <path id="_36" class="fil2" d="M510.19 217.66l3.09 0 7.73 25.8 -3.76 0 -5.52 -20.67 -5.52 20.67 -3.76 0 7.73 -25.8zm-3.64 16.84l10.61 0 0 3.31 -10.61 0 0 -3.31z"></path> <path id="_37" class="fil2" d="M530.39 229.36l5.63 -11.7 4.01 0 -7.63 14.75 -2 -3.05zm-0.1 2.68l3.09 -1.79 7.73 13.22 -4.31 0 -6.51 -11.43zm-6.16 -14.37l3.49 0 0 25.8 -3.49 0 0 -25.8zm1.76 11.32l7.5 0 0 3.32 -7.5 0 0 -3.32z"></path> <path id="_38" class="fil2" d="M548.38 219.78l3.49 0 0 23.69 -3.49 0 0 -23.69zm-5.94 -2.11l15.37 0 0 3.32 -15.37 0 0 -3.32z"></path> <polygon id="_39" class="fil2" points="573.28,243.45 573.28,223.88 573.71,224.34 563.72,243.45 560.82,243.45 560.82,217.66 564.25,217.66 564.25,237.45 563.82,236.99 573.85,217.66 576.69,217.66 576.69,243.45 "></polygon> <path id="_40" class="fil2" d="M583.78 240.18l5.62 0c1.29,0 2.25,-0.27 2.89,-0.81 0.63,-0.54 0.94,-1.3 0.94,-2.28l0 -1.7c0,-0.77 -0.13,-1.42 -0.39,-1.97 -0.26,-0.54 -0.65,-0.96 -1.16,-1.25 -0.51,-0.29 -1.16,-0.44 -1.93,-0.44l-5.98 0 0 -3.23 5.98 0c1.02,0 1.79,-0.28 2.33,-0.83 0.54,-0.56 0.81,-1.36 0.81,-2.42l0 -1.31c0,-0.99 -0.29,-1.74 -0.87,-2.25 -0.57,-0.51 -1.4,-0.76 -2.51,-0.76l-5.75 0 0 -3.26 6.05 0c1.42,0 2.62,0.24 3.61,0.73 0.99,0.48 1.73,1.18 2.23,2.09 0.5,0.9 0.74,1.99 0.74,3.25l0 1.37c0,0.85 -0.15,1.62 -0.45,2.33 -0.3,0.7 -0.75,1.28 -1.35,1.76 -0.59,0.48 -1.33,0.8 -2.19,0.97 0.9,0.13 1.68,0.44 2.33,0.94 0.65,0.5 1.15,1.14 1.49,1.9 0.35,0.76 0.51,1.62 0.51,2.56l0 1.74c0,1.25 -0.26,2.35 -0.78,3.28 -0.52,0.93 -1.27,1.64 -2.26,2.14 -0.99,0.5 -2.15,0.75 -3.49,0.75l-6.44 0 0 -3.28zm-2.13 -22.52l3.49 0 0 25.8 -3.49 0 0 -25.8z"></path> <path id="_41" class="fil2" d="M607.95 243.73c-1.57,0 -2.94,-0.33 -4.11,-0.98 -1.16,-0.65 -2.06,-1.57 -2.69,-2.78 -0.62,-1.2 -0.94,-2.62 -0.94,-4.25l0 -10.34c0,-1.64 0.31,-3.05 0.94,-4.25 0.63,-1.2 1.53,-2.13 2.69,-2.77 1.17,-0.64 2.54,-0.97 4.11,-0.97 1.57,0 2.94,0.33 4.11,0.97 1.16,0.64 2.06,1.57 2.69,2.77 0.62,1.2 0.94,2.62 0.94,4.25l0 10.34c0,1.63 -0.31,3.05 -0.94,4.25 -0.63,1.21 -1.53,2.13 -2.69,2.78 -1.17,0.65 -2.54,0.98 -4.11,0.98zm0 -3.42c0.85,0 1.59,-0.18 2.22,-0.55 0.64,-0.36 1.12,-0.88 1.47,-1.55 0.35,-0.68 0.51,-1.46 0.51,-2.36l0 -10.57c0,-0.91 -0.17,-1.7 -0.51,-2.37 -0.35,-0.67 -0.83,-1.18 -1.47,-1.54 -0.63,-0.36 -1.37,-0.54 -2.22,-0.54 -0.85,0 -1.6,0.18 -2.23,0.54 -0.64,0.36 -1.12,0.88 -1.45,1.54 -0.34,0.67 -0.51,1.46 -0.51,2.37l0 10.57c0,0.9 0.17,1.68 0.51,2.36 0.33,0.67 0.82,1.19 1.45,1.55 0.63,0.36 1.37,0.55 2.23,0.55z"></path> <path id="_42" class="fil2" d="M622.16 240.18l5.62 0c1.29,0 2.25,-0.27 2.89,-0.81 0.63,-0.54 0.94,-1.3 0.94,-2.28l0 -1.7c0,-0.77 -0.13,-1.42 -0.39,-1.97 -0.26,-0.54 -0.65,-0.96 -1.16,-1.25 -0.51,-0.29 -1.16,-0.44 -1.93,-0.44l-5.98 0 0 -3.23 5.98 0c1.02,0 1.79,-0.28 2.33,-0.83 0.54,-0.56 0.81,-1.36 0.81,-2.42l0 -1.31c0,-0.99 -0.29,-1.74 -0.87,-2.25 -0.57,-0.51 -1.4,-0.76 -2.51,-0.76l-5.75 0 0 -3.26 6.05 0c1.42,0 2.62,0.24 3.61,0.73 0.99,0.48 1.73,1.18 2.23,2.09 0.5,0.9 0.74,1.99 0.74,3.25l0 1.37c0,0.85 -0.15,1.62 -0.45,2.33 -0.3,0.7 -0.75,1.28 -1.35,1.76 -0.59,0.48 -1.33,0.8 -2.19,0.97 0.9,0.13 1.68,0.44 2.33,0.94 0.65,0.5 1.15,1.14 1.49,1.9 0.35,0.76 0.51,1.62 0.51,2.56l0 1.74c0,1.25 -0.26,2.35 -0.78,3.28 -0.52,0.93 -1.27,1.64 -2.26,2.14 -0.99,0.5 -2.15,0.75 -3.49,0.75l-6.44 0 0 -3.28zm-2.13 -22.52l3.49 0 0 25.8 -3.49 0 0 -25.8z"></path> </g> </g> </svg> 