<svg xmlns="http://www.w3.org/2000/svg" xmlns:xlink="http://www.w3.org/1999/xlink" xmlns:xodm="http://www.corel.com/coreldraw/odm/2003" xml:space="preserve" version="1.1" style="shape-rendering:geometricPrecision; text-rendering:geometricPrecision; image-rendering:optimizeQuality; fill-rule:evenodd; clip-rule:evenodd" viewBox="-8.0 -8.0 799.4 259.7"> <defs> <style type="text/css"> .fil0 {fill:#063CC1} .fil2 {fill:#F1F5F9;fill-rule:nonzero} .fil1 {fill:#063CC1;fill-rule:nonzero} </style> </defs> <g id="Слой_x0020_1"> <metadata id="CorelCorpID_0Corel-Layer"></metadata> <path class="fil0" d="M209.99 105.01c2.28,1.94 15.06,3.23 25.62,16.49 5.97,7.5 11.37,17.48 11.54,31.06 0.1,7.88 0.83,36.78 -0.81,42.19 -1.75,5.8 -4.59,9.36 -9.78,11.25 -4.81,1.75 -14.33,0.94 -20.12,0.94 -15.05,-0 -25.38,1.46 -34.71,-7.2 -9.09,-8.43 -7.34,-20.1 -7.33,-35.55 0,-7.22 -0.93,-13.6 2.77,-18.53 6.11,-8.15 22.72,-8.41 26.21,5.08 0.79,3.06 0.57,6.61 -0.58,9.43 -0.5,1.23 -1.11,2.3 -1.88,3.3 -0.82,1.05 -2.05,1.6 -2.65,2.97 2.35,3.78 12.4,3.69 17.9,0.45 2.54,-1.5 4.18,-3.52 5.53,-6.24 1.87,-3.78 1.84,-5.81 1.78,-10.69 -0.1,-8.92 0.22,-14 -4.4,-19.59 -3.55,-4.29 -9.31,-6.78 -17.12,-6.64 -7.66,0.14 -15.5,0.02 -23.18,0.02 -8.59,0 -12.78,1.15 -18.16,5.54 -11.46,9.36 -8.81,20.87 -8.81,39.41 0,25.51 11.85,21.61 16.28,31.31 2.41,5.28 1.64,16.06 1.64,22.66 -0,8.57 0.92,15.31 -4.95,19.24 -3.07,2.06 -5.73,1.67 -9.9,1.63 -3.87,-0.03 -7.72,-0.01 -11.59,0 -3.65,0.01 -7.36,0.32 -10.7,0.13 -3.35,0.19 -7.06,-0.12 -10.7,-0.13 -3.87,-0.01 -7.72,-0.03 -11.59,-0 -4.17,0.03 -6.83,0.42 -9.9,-1.63 -5.87,-3.93 -4.95,-10.67 -4.95,-19.24 -0,-6.61 -0.78,-17.38 1.64,-22.66 4.43,-9.7 16.27,-5.79 16.28,-31.31 0,-18.54 2.65,-30.05 -8.81,-39.41 -5.38,-4.39 -9.57,-5.54 -18.16,-5.54 -7.68,0 -15.52,0.12 -23.18,-0.02 -7.81,-0.14 -13.57,2.35 -17.12,6.64 -4.63,5.59 -4.3,10.67 -4.4,19.59 -0.06,4.88 -0.09,6.91 1.78,10.69 1.35,2.72 2.99,4.74 5.53,6.24 5.5,3.24 15.55,3.34 17.9,-0.45 -0.59,-1.36 -1.83,-1.92 -2.65,-2.97 -0.78,-1 -1.38,-2.07 -1.88,-3.3 -1.15,-2.82 -1.37,-6.37 -0.58,-9.43 3.49,-13.49 20.09,-13.24 26.2,-5.08 3.7,4.93 2.76,11.31 2.77,18.53 0.01,15.45 1.76,27.12 -7.33,35.55 -9.33,8.65 -19.65,7.19 -34.71,7.2 -5.79,0 -15.3,0.81 -20.12,-0.94 -5.19,-1.89 -8.02,-5.45 -9.78,-11.25 -1.64,-5.41 -0.91,-34.3 -0.81,-42.19 0.18,-13.58 5.57,-23.56 11.54,-31.06 10.56,-13.26 23.33,-14.55 25.62,-16.49 0.7,-6.93 -12.71,-5.43 -18.41,-5.42 -7.83,0.02 -15.73,-0.2 -23.54,0.11 -6.98,0.28 -12.73,-4.09 -12.99,-10.83 -0.75,-19.25 -0.75,-29.26 18.43,-29.11 17.97,0.14 55.59,-1.16 69.18,0.98 9.27,1.46 17.82,4.54 25.31,8.89 -1.59,-19.58 -11.99,-16.95 -16.07,-25.9 -2.41,-5.28 -1.64,-16.06 -1.64,-22.66 0,-8.57 -0.92,-15.31 4.95,-19.24 3.07,-2.06 5.73,-1.67 9.9,-1.63 3.87,0.03 7.72,0.01 11.59,-0 3.65,-0.01 7.36,-0.32 10.7,-0.13 3.35,-0.19 7.06,0.12 10.7,0.13 3.87,0.01 7.72,0.03 11.59,0 4.17,-0.03 6.83,-0.42 9.9,1.63 5.87,3.93 4.95,10.67 4.95,19.24 0,6.61 0.78,17.38 -1.64,22.66 -4.09,8.95 -14.49,6.32 -16.07,25.9 7.5,-4.35 16.04,-7.43 25.31,-8.89 13.59,-2.14 51.2,-0.84 69.18,-0.98 19.18,-0.15 19.17,9.86 18.43,29.11 -0.26,6.74 -6.01,11.11 -12.99,10.83 -7.81,-0.31 -15.72,-0.09 -23.54,-0.11 -5.7,-0.01 -19.11,-1.51 -18.41,5.42z"></path> <g id="_1267150244640"> <g> <path class="fil1" d="M352.41 68.09l-38.06 0 0 8.86 -8.86 0 0 -8.86 -8.86 0 0 8.86 8.86 0 0 8.72 8.86 0 0 8.86 8.72 0 0 -8.86 6.23 0 -7.61 17.71 -7.33 0 0 -8.86 -8.86 0 0 8.86 8.86 0 0 8.72 -8.86 0 0 8.86 -17.57 0 0 8.72 8.72 0 0 8.86 -8.72 0 0 17.57 -8.86 0 0 8.86 36.4 0 7.75 -17.71 42.9 0 7.75 17.71 20.62 0 -42.07 -96.87zm-64.49 44.01l17.57 0 0 -8.72 -8.86 0 0 -8.86 8.86 0 0 -8.86 -17.57 0 0 8.86 -8.86 0 0 8.86 8.86 0 0 8.72zm43.04 17.3l13.7 -31.27 13.7 31.27 -27.4 0zm-43.04 9.13l0 -8.72 -8.86 0 0 8.72 8.86 0zm17.57 1.8l-3.04 7.06 -5.81 0 0 -8.86 8.86 0 0 1.8z"></path> <path class="fil1" d="M428.68 134.71l-37.17 -67.62 33.29 0 17.19 37.61 14.14 -37.61 26.51 0 -28.81 71.34c-2.57,6.46 -5.53,11.62 -8.85,15.46 -3.33,3.84 -6.97,6.65 -10.93,8.44 -3.96,1.76 -9,2.64 -15.07,2.64l-15.14 0 0 -21.72 10.05 0c8.39,0 13.33,-2.84 14.8,-8.54zm88.58 -5.26l0 35.51 -30.52 0 0 -97.88 41.77 0c10.42,0 18.34,1.2 23.77,3.6 5.41,2.4 9.71,6.04 12.89,10.98 3.18,4.92 4.77,10.44 4.77,16.56 0,9.34 -3.25,16.87 -9.73,22.62 -6.48,5.75 -15.14,8.61 -25.97,8.61l-16.97 0zm-0.44 -20.98l9.98 0c8.8,0 13.21,-3.3 13.21,-9.9 0,-6.21 -4.06,-9.32 -12.2,-9.32l-10.98 0 0 19.22zm64.27 56.49l0 -97.88 49.7 0c10.32,0 17.85,2.59 22.6,7.8 4.72,5.21 7.09,11.15 7.09,17.83 0,4.87 -1.37,9.27 -4.11,13.21 -2.71,3.94 -6.8,6.65 -12.2,8.14 12.64,3.06 18.95,10.66 18.95,22.82 0,7.29 -2.23,13.77 -6.7,19.49 -4.48,5.72 -14.04,8.58 -28.69,8.58l-46.64 0zm27.59 -60.46l14.01 0c3.52,0 5.99,-0.88 7.44,-2.64 1.44,-1.76 2.18,-3.64 2.18,-5.65 0,-5.43 -3.37,-8.14 -10.12,-8.14l-13.5 0 0 16.44zm0 38.74l14.75 0c3.67,0 6.36,-0.91 8.07,-2.71 1.71,-1.79 2.57,-3.84 2.57,-6.09 0,-2.27 -0.83,-4.35 -2.49,-6.24 -1.66,-1.91 -4.72,-2.86 -9.15,-2.86l-13.74 0 0 17.9z"></path> <path class="fil1" d="M710.03 68.09l38.06 0 0 8.86 8.86 0 0 -8.86 8.86 0 0 8.86 -8.86 0 0 8.72 -8.86 0 0 8.86 -8.72 0 0 -8.86 -6.23 0 7.61 17.71 7.33 0 0 -8.86 8.86 0 0 8.86 -8.86 0 0 8.72 8.86 0 0 8.86 17.57 0 0 8.72 -8.72 0 0 8.86 8.72 0 0 17.57 8.86 0 0 8.86 -36.4 0 -7.75 -17.71 -42.9 0 -7.75 17.71 -20.62 0 42.07 -96.87zm64.49 44.01l-17.57 0 0 -8.72 8.86 0 0 -8.86 -8.86 0 0 -8.86 17.57 0 0 8.86 8.86 0 0 8.86 -8.86 0 0 8.72zm-43.04 17.3l-13.7 -31.27 -13.7 31.27 27.4 0zm43.04 9.13l0 -8.72 8.86 0 0 8.72 -8.86 0zm-17.57 1.8l3.04 7.06 5.81 0 0 -8.86 -8.86 0 0 1.8z"></path> </g>                                            </g> </g> </svg>